<svg xmlns="http://www.w3.org/2000/svg" xml:space="preserve" class="testimonial-icon" viewBox="0 0 446 446">    <path fill="#BF0A30" d="M109.7 91.08c25.2 0 48.33 10.17 65.12 28.63 17.14 18.84 25.22 43.63 22.74 69.78-3.71 39.23-15.88 71.28-37.2 97.99-17.29 21.66-37.53 38.34-60.17 49.57-22.52 11.16-48.08 17.27-75.98 18.16-.24.01-.48.01-.71.01-.66 0-1.15-.03-1.51-.07-.08-.49-.15-1.25-.15-2.36-.02-9.98-.01-20.19 0-29.19 0-1.5.08-2.47.17-3.08.6-.1 1.57-.21 3.06-.25 33.95-1.05 64.06-12.79 89.48-34.89.54-.47 1.02-.93 1.63-1.5.32-.3.7-.66 1.17-1.1a9 9 0 0 0 2.27-9.81 8.983 8.983 0 0 0-8.25-5.77c-12.4-.21-23.4-2.23-33.62-6.15-17.42-6.69-32.7-19.62-43.03-36.41-10.3-16.74-14.77-35.83-12.57-53.74 2.55-20.77 11.2-39.32 25.03-53.64 13.73-14.26 31.37-23.06 51-25.47 3.84-.47 7.71-.71 11.52-.71m0-9c-4.14 0-8.35.25-12.61.78-44.23 5.43-78.19 40.62-83.87 86.93-5.06 41.23 21.52 84.37 61.31 99.65 11.53 4.43 23.48 6.52 36.69 6.75-1.33 1.24-1.94 1.84-2.57 2.39-24.05 20.91-52.05 31.7-83.85 32.68-9.37.29-11.94 2.82-11.95 12.32-.01 9.74-.02 19.48 0 29.22.02 8.21 2.83 11.42 10.66 11.42.32 0 .65-.01 1-.02 58.49-1.85 106.39-25.35 142.9-71.11 23.91-29.96 35.51-64.6 39.12-102.76 5.6-59.23-39.31-108.25-96.83-108.25zM336.38 90.78c24.27 0 47.83 10.58 64.64 29.02 8.27 9.08 14.5 19.5 18.5 30.98 4.18 11.99 5.69 24.54 4.51 37.29-3.72 39.97-15.88 72.41-37.17 99.15-17.33 21.77-37.63 38.52-60.32 49.79-22.59 11.21-48.24 17.33-76.23 18.19-.22.01-.43.01-.63.01-.62 0-1.09-.03-1.43-.07-.06-.44-.12-1.08-.12-2.01-.04-10.51-.04-20.87-.01-30.8 0-.87.06-1.47.11-1.88.44-.08 1.12-.15 2.11-.18 35.5-.84 66.04-13.07 93.35-37.4a9.009 9.009 0 0 0 2.45-9.86 8.986 8.986 0 0 0-8.29-5.86c-17.3-.28-32.18-4.17-45.5-11.9-32.1-18.64-49.39-55.3-43.04-91.22 3.18-18.01 11.71-34.37 24.66-47.31 12.95-12.94 29.31-21.46 47.33-24.63a87.93 87.93 0 0 1 15.08-1.31m-.01-9c-5.47 0-11.04.48-16.65 1.46-40.44 7.12-72.14 38.8-79.29 79.23-7.02 39.73 11.99 80.02 47.39 100.57 15.06 8.74 31.36 12.82 49.87 13.12-25.68 22.88-54.51 34.34-87.58 35.12-7.98.19-10.99 3.14-11.01 11.02-.04 10.29-.03 20.58.01 30.87.03 7.85 2.92 11.04 10.55 11.04.3 0 .6 0 .91-.01 58.71-1.8 106.74-25.41 143.32-71.37 24.13-30.32 35.51-65.42 39.09-103.92 5.38-57.85-40.88-107.14-96.61-107.13z"></path></svg>